The director presents takes and scenes filmed on location in Africa for a film-that-never-was, a black Oresteia.

---------------------------

General 
Complete name : Appunti.per.un'Orestiade.africana.1970.720p.BluRay.x264-CtrlHD.mkv 
Format : Matroska 
File size : 4.37 GiB 
Duration : 1h 13mn 
Overall bit rate : 8 544 Kbps 
Movie name : Appunti per un'Orestiade africana (1970) 
Encoded date : UTC 2009-10-19 06:19:57 
Writing application : mkvmerge v2.9.8 ('C'est le bon') built on Aug 13 2009 12:49:06 
Writing library : libebml v0.7.7 + libmatroska v0.8.1 
Cover : Yes / Yes 
Video #1 
ID : 1 
Format : AVC 
Format/Info : Advanced Video Codec 
Format profile : High@L4.1 
Format settings, CABAC : Yes 
Format settings, ReFrames : 9 frames 
Muxing mode : Container profile=Unknown@4.1 
Codec ID : V_MPEG4/ISO/AVC 
Duration : 1h 13mn 
Bit rate : 8 182 Kbps 
Nominal bit rate : 8 350 Kbps 
Width : 980 pixels 
Height : 720 pixels 
Display aspect ratio : 4:3 
Frame rate : 23.976 fps 
Resolution : 24 bits 
Colorimetry : 4:2:0 
Scan type : Progressive 
Bits/(Pixel*Frame) : 0.484 
Stream size : 4.18 GiB (96%) 
Writing library : x264 core 77 r1292M e381f6d 
Encoding settings : cabac=1 / ref=9 / deblock=1:-3:-3 / analyse=0x3:0x113 / me=umh / subme=10 / psy=1 / psy_rd=1.0:0.1 / mixed_ref=1 / me_range=32 / chroma_me=1 / trellis=2 / 8x8dct=1 / cqm=0 / deadzone=21,11 / chroma_qp_offset=-3 / threads=3 / nr=0 / decimate=0 / mbaff=0 / constrained_intra=0 / bframes=6 / b_pyramid=1 / b_adapt=2 / b_bias=0 / direct=3 / wpredb=1 / keyint=250 / keyint_min=25 / scenecut=40 / rc=2pass / mbtree=0 / bitrate=8350 / ratetol=1.0 / qcomp=0.60 / qpmin=10 / qpmax=51 / qpstep=4 / cplxblur=20.0 / qblur=0.5 / ip_ratio=1.40 / pb_ratio=1.30 / aq=1:0.70 

Audio #2 
ID : 2 
Format : AC-3 
Format/Info : Audio Coding 3 
Codec ID : A_AC3 
Duration : 1h 13mn 
Bit rate mode : Constant 
Bit rate : 192 Kbps 
Channel(s) : 2 channels 
Channel positions : L R 
Sampling rate : 48.0 KHz 
Stream size : 101 MiB (2%) 
Language : Italian 

Text #3 
ID : 3 
Format : ASS 
Codec ID : S_TEXT/ASS 
Codec ID/Info : Advanced Sub Station Alpha 
Language : English
